<?xml version="1.0" encoding="UTF-8" standalone="no"?>
<!-- Created with Inkscape (http://www.inkscape.org/) -->

<svg
   xmlns:dc="http://purl.org/dc/elements/1.1/"
   xmlns:cc="http://creativecommons.org/ns#"
   xmlns:rdf="http://www.w3.org/1999/02/22-rdf-syntax-ns#"
   xmlns:svg="http://www.w3.org/2000/svg"
   xmlns="http://www.w3.org/2000/svg"
   xmlns:sodipodi="http://sodipodi.sourceforge.net/DTD/sodipodi-0.dtd"
   xmlns:inkscape="http://www.inkscape.org/namespaces/inkscape"
   id="svg3004"
   version="1.1"
   inkscape:version="0.48.4 r9939"
   width="341.7375"
   height="277.725"
   xml:space="preserve"
   sodipodi:docname="Twitter_logo_blue.eps"><metadata
     id="metadata3010"><rdf:RDF><cc:Work
         rdf:about=""><dc:format>image/svg+xml</dc:format><dc:type
           rdf:resource="http://purl.org/dc/dcmitype/StillImage" /><dc:title></dc:title></cc:Work></rdf:RDF></metadata><defs
     id="defs3008"><clipPath
       clipPathUnits="userSpaceOnUse"
       id="clipPath3020"><path
         d="M 0,2221.78 0,0 l 2733.9,0 0,2221.78 -2733.9,0 z"
         id="path3022" /></clipPath></defs><sodipodi:namedview
     pagecolor="#ffffff"
     bordercolor="#666666"
     borderopacity="1"
     objecttolerance="10"
     gridtolerance="10"
     guidetolerance="10"
     inkscape:pageopacity="0"
     inkscape:pageshadow="2"
     inkscape:window-width="1392"
     inkscape:window-height="921"
     id="namedview3006"
     showgrid="false"
     inkscape:zoom="2.4484652"
     inkscape:cx="101.02907"
     inkscape:cy="138.8625"
     inkscape:window-x="0"
     inkscape:window-y="0"
     inkscape:window-maximized="0"
     inkscape:current-layer="g3012" /><g
     id="g3012"
     inkscape:groupmode="layer"
     inkscape:label="ink_ext_XXXXXX"
     transform="matrix(1.25,0,0,-1.25,0,277.725)"><path
       inkscape:connector-curvature="0"
       id="path3024"
       style="fill:#000000;fill-opacity:1;fill-rule:nonzero;stroke:none"
       d="M 85.9797,0 C 54.3047,0 24.8223,9.28516 0,25.1988 4.38789,24.6809 8.85273,24.416 13.3801,24.416 c 26.2781,0 50.4629,8.9672 69.659,24.0102 -24.5442,0.4527 -45.2579,16.6687 -52.3953,38.9527 3.4246,-0.6551 6.9382,-1.0059 10.5527,-1.0059 5.1148,0 10.0703,0.6852 14.7769,1.9668 -25.6589,5.1524 -44.9929,27.8222 -44.9929,54.9982 0,0.237 7e-4,0.471 0.0047,0.705 7.5628,-4.201 16.2113,-6.724 25.4054,-7.015 -15.05,10.058 -24.9519,27.226 -24.9519,46.685 0,10.28 2.7652,19.914 7.5933,28.198 27.6645,-33.934 68.9934,-56.264 115.609,-58.603 -0.956,4.105 -1.453,8.386 -1.453,12.782 0,30.975 25.114,56.088 56.091,56.088 16.132,0 30.709,-6.812 40.941,-17.713 12.776,2.516 24.78,7.184 35.617,13.612 -4.188,-13.098 -13.081,-24.09 -24.662,-31.032 11.346,1.356 22.156,4.371 32.215,8.832 -7.52,-11.248 -17.03,-21.127 -27.988,-29.035 0.108,-2.405 0.162,-4.824 0.162,-7.256 C 245.564,85.4672 189.148,0 85.9797,0" /></g></svg>